<?xml version="1.0" standalone="no"?>
<!DOCTYPE svg PUBLIC "-//W3C//DTD SVG 20010904//EN"
 "http://www.w3.org/TR/2001/REC-SVG-20010904/DTD/svg10.dtd">
<svg version="1.0" xmlns="http://www.w3.org/2000/svg"
 width="540.000000pt" height="258.000000pt" viewBox="0 0 540.000000 258.000000"
 preserveAspectRatio="xMidYMid meet">

<g transform="translate(0.000000,258.000000) scale(0.100000,-0.100000)"
fill="#000000" stroke="none">
<path d="M2449 1587 c-51 -33 -83 -106 -83 -187 0 -200 183 -282 260 -115 50
106 24 249 -56 303 -42 28 -78 28 -121 -1z"/>
<path d="M2874 1568 c-36 -9 -99 -75 -120 -124 -18 -43 -18 -145 0 -189 28
-65 119 -95 186 -60 57 29 110 127 110 202 0 20 -12 57 -26 84 -39 70 -94 103
-150 87z"/>
<path d="M2154 1286 c-17 -7 -40 -26 -52 -41 -25 -32 -52 -114 -52 -160 0 -53
30 -123 66 -155 29 -25 43 -30 87 -30 102 0 156 66 157 189 0 81 -28 142 -79
176 -47 32 -88 38 -127 21z"/>
<path d="M3060 1182 c-58 -29 -75 -71 -75 -187 0 -83 3 -105 20 -129 55 -81
215 -73 260 13 21 42 30 137 16 188 -29 106 -132 160 -221 115z"/>
<path d="M2598 1056 c-59 -21 -87 -43 -121 -94 -17 -26 -92 -108 -168 -182
-75 -74 -145 -151 -155 -170 -47 -91 -6 -252 78 -307 52 -35 164 -42 296 -19
120 21 169 20 270 -4 156 -37 273 -22 334 45 31 33 58 112 58 167 0 88 -17
115 -152 248 -71 69 -152 156 -181 195 -29 38 -71 82 -93 97 -48 34 -115 44
-166 24z m32 -446 l0 -230 -111 0 c-125 0 -165 12 -201 63 -30 42 -36 131 -13
181 29 61 76 90 156 94 l69 4 0 59 0 59 50 0 50 0 0 -230z m140 -13 c0 -75 4
-117 12 -125 7 -7 34 -12 60 -12 l48 0 0 125 0 125 50 0 50 0 0 -165 0 -165
-120 0 c-128 0 -169 11 -190 49 -5 11 -10 78 -10 150 l0 131 50 0 50 0 0 -113z"/>
<path d="M2409 611 c-19 -15 -24 -29 -24 -66 0 -61 27 -85 96 -85 l49 0 0 85
0 85 -49 0 c-33 0 -56 -6 -72 -19z"/>
<path d="M4400 995 l0 -25 -150 0 -150 0 0 -340 0 -340 55 0 55 0 0 295 0 295
295 0 295 0 0 45 0 45 -135 0 -135 0 0 25 c0 24 -2 25 -65 25 -63 0 -65 -1
-65 -25z"/>
<path d="M600 639 l0 -351 243 4 c237 3 243 4 287 28 64 36 90 79 90 152 0 70
-17 107 -65 144 -35 27 -35 27 -14 42 12 8 30 33 40 56 35 76 20 166 -36 215
-59 51 -113 61 -342 61 l-203 0 0 -351z m438 195 c30 -21 29 -68 -3 -99 -23
-24 -29 -25 -155 -25 l-130 0 0 70 0 70 133 0 c104 0 137 -3 155 -16z m7 -289
c14 -13 25 -36 25 -50 0 -14 -11 -37 -25 -50 -23 -24 -29 -25 -160 -25 l-135
0 0 75 0 75 135 0 c131 0 137 -1 160 -25z"/>
<path d="M1850 925 l0 -65 75 0 75 0 0 65 0 65 -75 0 -75 0 0 -65z"/>
<path d="M3350 920 l0 -50 145 0 146 0 -16 -30 -16 -30 -119 0 -120 0 0 -260
0 -260 300 0 c287 0 301 1 320 20 19 19 20 33 20 260 l0 240 -125 0 c-69 0
-125 2 -125 4 0 3 4 16 10 30 10 26 10 26 135 26 l125 0 0 50 0 50 -340 0
-340 0 0 -50z m540 -265 l0 -55 -200 0 -200 0 0 55 0 55 200 0 200 0 0 -55z
m-2 -212 l-3 -58 -197 -3 -198 -2 0 60 0 60 200 0 201 0 -3 -57z"/>
<path d="M4290 850 c0 -16 -7 -20 -30 -20 -28 0 -30 -2 -30 -40 0 -38 2 -40
30 -40 l30 0 0 -70 0 -70 195 0 c182 0 196 1 215 20 15 15 20 33 20 70 l0 50
40 0 40 0 0 40 0 40 -40 0 c-33 0 -40 3 -40 20 0 18 -7 20 -55 20 -48 0 -55
-2 -55 -20 0 -19 -7 -20 -105 -20 -98 0 -105 1 -105 20 0 18 -7 20 -55 20 -48
0 -55 -2 -55 -20z m318 -132 l-3 -33 -102 -3 -103 -3 0 36 0 35 106 0 105 0
-3 -32z"/>
<path d="M1290 755 l0 -55 150 0 c137 0 152 -2 170 -20 11 -11 20 -33 20 -50
l0 -30 -134 0 c-121 0 -136 -2 -166 -23 -47 -31 -72 -78 -73 -137 -1 -54 17
-87 67 -124 25 -19 44 -21 242 -24 l214 -3 0 186 c0 205 -6 229 -67 288 -43
40 -80 47 -260 47 l-163 0 0 -55z m340 -305 l0 -50 -104 0 c-82 0 -108 3 -120
16 -20 19 -20 34 0 62 14 20 23 22 120 22 l104 0 0 -50z"/>
<path d="M1850 545 l0 -255 75 0 75 0 0 255 0 255 -75 0 -75 0 0 -255z"/>
<path d="M4240 541 c0 -38 1 -39 85 -87 75 -43 83 -51 70 -64 -10 -9 -42 -16
-90 -18 l-75 -4 0 -39 0 -39 76 0 c58 0 91 6 140 26 65 26 65 26 102 8 26 -14
66 -20 140 -22 l102 -4 0 41 0 41 -81 0 c-44 0 -90 5 -101 11 -18 10 -10 17
81 70 92 54 101 62 101 89 l0 30 -275 0 -275 0 0 -39z m307 -67 l-47 -24 -40
20 c-22 11 -40 23 -40 25 0 3 39 5 88 5 l87 -1 -48 -25z"/>
</g>
</svg>
